<svg width="60" height="60" viewBox="0 0 60 60" fill="none" xmlns="http://www.w3.org/2000/svg">
<g clip-path="url(#clip0_1760_944)">
<path d="M40.3674 52.8726H19.6331C19.0962 52.8726 18.6611 53.3077 18.6611 53.8445C18.6611 54.3812 19.0962 54.8164 19.6331 54.8164H40.3674C40.9043 54.8164 41.3393 54.3812 41.3393 53.8445C41.3393 53.3077 40.9043 52.8726 40.3674 52.8726Z" fill="#8E8E8E"/>
<path d="M28.9631 48.7256C28.4262 48.7256 27.9912 49.1607 27.9912 49.6975C27.9912 50.2343 28.4262 50.6694 28.9631 50.6694H31.0366C31.5735 50.6694 32.0085 50.2343 32.0085 49.6975C32.0085 49.1607 31.5735 48.7256 31.0366 48.7256H28.9631Z" fill="#8E8E8E"/>
<path d="M35.1833 48.7256C34.6465 48.7256 34.2114 49.1607 34.2114 49.6975C34.2114 50.2343 34.6465 50.6694 35.1833 50.6694H37.2568C37.7937 50.6694 38.2287 50.2343 38.2287 49.6975C38.2287 49.1607 37.7937 48.7256 37.2568 48.7256H35.1833Z" fill="#8E8E8E"/>
<path d="M44.4494 49.6975C44.4494 49.1607 44.0144 48.7256 43.4775 48.7256H41.4041C40.8672 48.7256 40.4321 49.1607 40.4321 49.6975C40.4321 50.2343 40.8672 50.6694 41.4041 50.6694H43.4775C44.0144 50.6694 44.4494 50.2343 44.4494 49.6975Z" fill="#8E8E8E"/>
<path d="M49.6977 48.7256H47.6243C47.0874 48.7256 46.6523 49.1607 46.6523 49.6975C46.6523 50.2343 47.0874 50.6694 47.6243 50.6694H49.6977C50.2346 50.6694 50.6696 50.2343 50.6696 49.6975C50.6696 49.1607 50.2346 48.7256 49.6977 48.7256Z" fill="#8E8E8E"/>
<path d="M13.3478 49.6975C13.3478 49.1607 12.9128 48.7256 12.3759 48.7256H10.3025C9.7656 48.7256 9.33057 49.1607 9.33057 49.6975C9.33057 50.2343 9.7656 50.6694 10.3025 50.6694H12.3759C12.9128 50.6694 13.3478 50.2343 13.3478 49.6975Z" fill="#8E8E8E"/>
<path d="M19.5681 49.6975C19.5681 49.1607 19.133 48.7256 18.5961 48.7256H16.5227C15.9858 48.7256 15.5508 49.1607 15.5508 49.6975C15.5508 50.2343 15.9858 50.6694 16.5227 50.6694H18.5961C19.133 50.6694 19.5681 50.2343 19.5681 49.6975Z" fill="#8E8E8E"/>
<path d="M22.7429 48.7256C22.206 48.7256 21.771 49.1607 21.771 49.6975C21.771 50.2343 22.206 50.6694 22.7429 50.6694H24.8164C25.3532 50.6694 25.7883 50.2343 25.7883 49.6975C25.7883 49.1607 25.3532 48.7256 24.8164 48.7256H22.7429Z" fill="#8E8E8E"/>
<path d="M28.9631 42.3757H31.0366C31.5735 42.3757 32.0085 41.9406 32.0085 41.4038C32.0085 40.867 31.5735 40.4319 31.0366 40.4319H28.9631C28.4262 40.4319 27.9912 40.867 27.9912 41.4038C27.9912 41.9406 28.4262 42.3757 28.9631 42.3757Z" fill="#8E8E8E"/>
<path d="M35.1833 42.3757H37.2568C37.7937 42.3757 38.2287 41.9406 38.2287 41.4038C38.2287 40.867 37.7937 40.4319 37.2568 40.4319H35.1833C34.6465 40.4319 34.2114 40.867 34.2114 41.4038C34.2114 41.9406 34.6465 42.3757 35.1833 42.3757Z" fill="#8E8E8E"/>
<path d="M41.4041 42.3757H43.4775C44.0144 42.3757 44.4494 41.9406 44.4494 41.4038C44.4494 40.867 44.0144 40.4319 43.4775 40.4319H41.4041C40.8672 40.4319 40.4321 40.867 40.4321 41.4038C40.4321 41.9406 40.8672 42.3757 41.4041 42.3757Z" fill="#8E8E8E"/>
<path d="M47.6243 42.3757H49.6977C50.2346 42.3757 50.6696 41.9406 50.6696 41.4038C50.6696 40.867 50.2346 40.4319 49.6977 40.4319H47.6243C47.0874 40.4319 46.6523 40.867 46.6523 41.4038C46.6523 41.9406 47.0874 42.3757 47.6243 42.3757Z" fill="#8E8E8E"/>
<path d="M10.3025 42.3757H12.3759C12.9128 42.3757 13.3478 41.9406 13.3478 41.4038C13.3478 40.867 12.9128 40.4319 12.3759 40.4319H10.3025C9.7656 40.4319 9.33057 40.867 9.33057 41.4038C9.33057 41.9406 9.7656 42.3757 10.3025 42.3757Z" fill="#8E8E8E"/>
<path d="M16.5227 42.3757H18.5961C19.133 42.3757 19.5681 41.9406 19.5681 41.4038C19.5681 40.867 19.133 40.4319 18.5961 40.4319H16.5227C15.9858 40.4319 15.5508 40.867 15.5508 41.4038C15.5508 41.9406 15.9858 42.3757 16.5227 42.3757Z" fill="#8E8E8E"/>
<path d="M22.7429 42.3757H24.8164C25.3532 42.3757 25.7883 41.9406 25.7883 41.4038C25.7883 40.867 25.3532 40.4319 24.8164 40.4319H22.7429C22.206 40.4319 21.771 40.867 21.771 41.4038C21.771 41.9406 22.206 42.3757 22.7429 42.3757Z" fill="#8E8E8E"/>
<path d="M31.1016 45.5508C31.1016 46.0875 31.5366 46.5227 32.0735 46.5227H34.1469C34.6838 46.5227 35.1188 46.0875 35.1188 45.5508C35.1188 45.014 34.6838 44.5789 34.1469 44.5789H32.0735C31.5366 44.5789 31.1016 45.014 31.1016 45.5508Z" fill="#8E8E8E"/>
<path d="M37.3218 45.5508C37.3218 46.0875 37.7568 46.5227 38.2937 46.5227H40.3671C40.904 46.5227 41.3391 46.0875 41.3391 45.5508C41.3391 45.014 40.904 44.5789 40.3671 44.5789H38.2937C37.7568 44.5789 37.3218 45.014 37.3218 45.5508Z" fill="#8E8E8E"/>
<path d="M43.542 45.5508C43.542 46.0875 43.977 46.5227 44.5139 46.5227H46.5873C47.1242 46.5227 47.5593 46.0875 47.5593 45.5508C47.5593 45.014 47.1242 44.5789 46.5873 44.5789H44.5139C43.977 44.5789 43.542 45.014 43.542 45.5508Z" fill="#8E8E8E"/>
<path d="M12.4404 45.5508C12.4404 46.0875 12.8755 46.5227 13.4124 46.5227H15.4858C16.0227 46.5227 16.4577 46.0875 16.4577 45.5508C16.4577 45.014 16.0227 44.5789 15.4858 44.5789H13.4124C12.8755 44.5789 12.4404 45.014 12.4404 45.5508Z" fill="#8E8E8E"/>
<path d="M10.2375 45.5508C10.2375 45.014 9.80246 44.5789 9.26557 44.5789H7.19214C6.65525 44.5789 6.22021 45.014 6.22021 45.5508C6.22021 46.0875 6.65525 46.5227 7.19214 46.5227H9.26557C9.80246 46.5227 10.2375 46.0875 10.2375 45.5508Z" fill="#8E8E8E"/>
<path d="M52.8076 44.5789H50.7341C50.1972 44.5789 49.7622 45.014 49.7622 45.5508C49.7622 46.0875 50.1972 46.5227 50.7341 46.5227H52.8076C53.3445 46.5227 53.7795 46.0875 53.7795 45.5508C53.7795 45.014 53.3445 44.5789 52.8076 44.5789Z" fill="#8E8E8E"/>
<path d="M46.5873 52.8726H44.5139C43.977 52.8726 43.542 53.3077 43.542 53.8445C43.542 54.3812 43.977 54.8164 44.5139 54.8164H46.5873C47.1242 54.8164 47.5593 54.3812 47.5593 53.8445C47.5593 53.3077 47.1242 52.8726 46.5873 52.8726Z" fill="#8E8E8E"/>
<path d="M15.4858 52.8726H13.4124C12.8755 52.8726 12.4404 53.3077 12.4404 53.8445C12.4404 54.3812 12.8755 54.8164 13.4124 54.8164H15.4858C16.0227 54.8164 16.4577 54.3812 16.4577 53.8445C16.4577 53.3077 16.0227 52.8726 15.4858 52.8726Z" fill="#8E8E8E"/>
<path d="M18.6611 45.5508C18.6611 46.0875 19.0962 46.5227 19.6331 46.5227H21.7065C22.2434 46.5227 22.6784 46.0875 22.6784 45.5508C22.6784 45.014 22.2434 44.5789 21.7065 44.5789H19.6331C19.0962 44.5789 18.6611 45.014 18.6611 45.5508Z" fill="#8E8E8E"/>
<path d="M24.8813 45.5508C24.8813 46.0875 25.3164 46.5227 25.8533 46.5227H27.9267C28.4636 46.5227 28.8986 46.0875 28.8986 45.5508C28.8986 45.014 28.4636 44.5789 27.9267 44.5789H25.8533C25.3164 44.5789 24.8813 45.014 24.8813 45.5508Z" fill="#8E8E8E"/>
<path d="M55.9179 34.2117H50.6695V29.9352H51.9958C52.4024 31.1391 53.5418 32.0086 54.8812 32.0086C56.5604 32.0086 57.9266 30.6425 57.9266 28.9633V24.8164C57.9266 23.1372 56.5604 21.7711 54.8812 21.7711C53.5418 21.7711 52.4024 22.6406 51.9958 23.8445H47.5594V3.04536C47.5594 1.36613 46.1933 0 44.514 0H15.486C13.8067 0 12.4406 1.36613 12.4406 3.04536V23.8445H8.00423C7.59758 22.6406 6.45823 21.7711 5.11879 21.7711C3.43957 21.7711 2.07343 23.1372 2.07343 24.8164V28.9633C2.07343 30.6425 3.43957 32.0086 5.11879 32.0086C6.45823 32.0086 7.59758 31.1391 8.00423 29.9352H9.33045V34.2117H4.08207C1.83123 34.2117 0 36.0429 0 38.2937V55.9179C0 58.1688 1.83123 60 4.08207 60H55.9179C58.1688 60 60 58.1688 60 55.9179V38.2937C60 36.0429 58.1688 34.2117 55.9179 34.2117ZM8.16415 27.9914V25.7883H51.8359V27.9914H8.16415ZM40.3013 29.9352C39.9726 31.1719 39.0228 32.3325 37.542 33.2749C35.542 34.5474 32.8635 35.2484 30 35.2484C27.1365 35.2484 24.458 34.5474 22.4581 33.2749C20.9773 32.3325 20.0274 31.172 19.6988 29.9352H40.3013ZM54.8812 23.7149C55.4886 23.7149 55.9827 24.209 55.9827 24.8164V28.9633C55.9827 29.5707 55.4886 30.0648 54.8812 30.0648C54.2738 30.0648 53.7797 29.5707 53.7797 28.9633V24.8164C53.7797 24.209 54.2738 23.7149 54.8812 23.7149ZM14.3844 3.04536C14.3844 2.43797 14.8786 1.94384 15.486 1.94384H44.514C45.1214 1.94384 45.6156 2.43797 45.6156 3.04536V23.8445H14.3844V3.04536ZM5.11879 30.0648C4.5114 30.0648 4.01728 29.5707 4.01728 28.9633V24.8164C4.01728 24.209 4.5114 23.7149 5.11879 23.7149C5.72618 23.7149 6.2203 24.209 6.2203 24.8164V28.9633C6.2203 29.5707 5.72618 30.0648 5.11879 30.0648ZM58.0562 55.9179C58.0562 57.0969 57.0971 58.0562 55.9179 58.0562H4.08207C2.90294 58.0562 1.94384 57.0969 1.94384 55.9179V38.2937C1.94384 37.1147 2.90294 36.1555 4.08207 36.1555H10.3024C10.8393 36.1555 11.2743 35.7203 11.2743 35.1836V29.9352H17.7078C18.0346 31.8413 19.3216 33.5828 21.4146 34.9147C23.7224 36.3833 26.7714 37.1922 30 37.1922C33.2286 37.1922 36.2776 36.3833 38.5856 34.9147C40.6786 33.5828 41.9655 31.8413 42.2924 29.9352H48.7257V35.1836C48.7257 35.7203 49.1607 36.1555 49.6976 36.1555H55.9179C57.0971 36.1555 58.0562 37.1147 58.0562 38.2937V55.9179Z" fill="#8E8E8E"/>
<path d="M40.3674 18.6609H19.6331C19.0962 18.6609 18.6611 19.0961 18.6611 19.6328C18.6611 20.1696 19.0962 20.6047 19.6331 20.6047H40.3674C40.9043 20.6047 41.3393 20.1696 41.3393 19.6328C41.3393 19.0961 40.9043 18.6609 40.3674 18.6609Z" fill="#8E8E8E"/>
<path d="M40.3674 13.4773H19.6331C19.0962 13.4773 18.6611 13.9125 18.6611 14.4492C18.6611 14.986 19.0962 15.4211 19.6331 15.4211H40.3674C40.9043 15.4211 41.3393 14.986 41.3393 14.4492C41.3393 13.9125 40.9043 13.4773 40.3674 13.4773Z" fill="#8E8E8E"/>
<path d="M40.3674 8.2937H19.6331C19.0962 8.2937 18.6611 8.72886 18.6611 9.26562C18.6611 9.80238 19.0962 10.2375 19.6331 10.2375H40.3674C40.9043 10.2375 41.3393 9.80238 41.3393 9.26562C41.3393 8.72886 40.9043 8.2937 40.3674 8.2937Z" fill="#8E8E8E"/>
</g>
<defs>
<clipPath id="clip0_1760_944">
<rect width="60" height="60" fill="white"/>
</clipPath>
</defs>
</svg>
