<svg width="20" height="20" viewBox="0 0 20 20" fill="none" xmlns="http://www.w3.org/2000/svg">
<path d="M16.7779 11.8429C17.0723 11.5514 17.0745 11.0765 16.7831 10.7822C16.4916 10.4879 16.0167 10.4856 15.7224 10.7771L16.7779 11.8429ZM10.0002 17.5L9.47242 18.0329C9.76471 18.3224 10.2357 18.3224 10.5279 18.0329L10.0002 17.5ZM4.27795 10.7771C3.98365 10.4856 3.50878 10.4879 3.2173 10.7822C2.92582 11.0765 2.92811 11.5514 3.22242 11.8429L4.27795 10.7771ZM3.22716 11.8475C3.52401 12.1364 3.99884 12.1299 4.28772 11.833C4.57659 11.5362 4.57012 11.0614 4.27326 10.7725L3.22716 11.8475ZM10.0002 5.83833L9.39826 6.28572C9.53932 6.47552 9.76164 6.58767 9.99812 6.58833C10.2346 6.58899 10.4575 6.47808 10.5997 6.28906L10.0002 5.83833ZM15.7247 10.7799C15.4291 11.0702 15.4249 11.545 15.7151 11.8405C16.0054 12.1361 16.4802 12.1403 16.7758 11.8501L15.7247 10.7799ZM15.7224 10.7771L9.47242 16.9671L10.5279 18.0329L16.7779 11.8429L15.7224 10.7771ZM10.5279 16.9671L4.27795 10.7771L3.22242 11.8429L9.47242 18.0329L10.5279 16.9671ZM4.27326 10.7725C3.35164 9.87567 3.01164 8.53733 3.39345 7.30938L1.96109 6.86401C1.41166 8.63107 1.90093 10.557 3.22716 11.8475L4.27326 10.7725ZM3.39345 7.30938C3.77526 6.08142 4.81422 5.17185 6.08188 4.95575L5.8298 3.47708C4.00561 3.78806 2.51053 5.09695 1.96109 6.86401L3.39345 7.30938ZM6.08188 4.95575C7.34953 4.73965 8.63117 5.25362 9.39826 6.28572L10.6022 5.39094C9.49829 3.90573 7.65399 3.16611 5.8298 3.47708L6.08188 4.95575ZM10.5997 6.28906C11.37 5.2646 12.6489 4.75745 13.9119 4.97557L14.1672 3.49745C12.3496 3.18357 10.5092 3.91337 9.40076 5.3876L10.5997 6.28906ZM13.9119 4.97557C15.175 5.19369 16.2097 6.10039 16.5918 7.32387L18.0236 6.87671C17.4737 5.1161 15.9847 3.81133 14.1672 3.49745L13.9119 4.97557ZM16.5918 7.32387C16.9739 8.54735 16.6391 9.88176 15.7247 10.7799L16.7758 11.8501C18.0916 10.5576 18.5735 8.63732 18.0236 6.87671L16.5918 7.32387Z" fill="black"/>
</svg>
